<svg xmlns="http://www.w3.org/2000/svg" viewBox="0 0 16.568 15.704" height="50" width="50"><path style="fill:none;stroke:#fff;stroke-width:.5" d="M113.634 147.812c-.029.072-.062.142-.086.215-.285.867-1.135 1.33-2.023 1.1-.663-.172-1.32-.37-1.988-.516-.811-.178-1.606-.012-2.386.213-.063.018-.136.132-.14.204-.066 1.12.15 2.175.741 3.142.204.333.393.675.599 1.007.569.919.12 2.22-.987 2.465-.033.007-.062.03-.093.046h-.365c-.508-.152-.96-.38-1.275-.838-.559-.814-.365-1.825.466-2.292.146-.082.323-.12.49-.152.309-.058.41-.192.316-.492-.07-.223-.173-.436-.258-.654-.266-.678-.54-1.354-.79-2.038-.067-.187-.157-.256-.35-.265-1.554-.07-3.107-.142-4.659-.228-.44-.025-.886-.06-1.314-.159-.682-.159-1.194-.631-1.376-1.212l7.217.239-1.99-6.895c.612.074 1.055.363 1.366.824.196.29.36.618.466.952.519 1.63 1.017 3.266 1.513 4.902.059.194.142.268.354.292.845.092 1.686.214 2.53.324.103.014.207.03.31.028.27-.003.384-.128.353-.394-.142-1.268 1.055-1.961 2.13-1.561.6.223 1.007.634 1.172 1.264.011.04.038.076.057.114v.365zm-1.75.656c.567 0 .993-.39.993-.907 0-.466-.485-.905-.998-.904a.956.956 0 0 0-.945.943c-.003.49.41.868.95.868zm-5.798 5.499c-.002.502.44.966.925.97.477.004.843-.39.842-.903-.002-.534-.402-.985-.876-.986-.48-.002-.89.42-.891.919z" transform="translate(-97.702 -140.314)"/></svg>