<?xml version="1.0" encoding="UTF-8" standalone="no"?>
<svg
   xmlns:dc="http://purl.org/dc/elements/1.1/"
   xmlns:cc="http://creativecommons.org/ns#"
   xmlns:rdf="http://www.w3.org/1999/02/22-rdf-syntax-ns#"
   xmlns:svg="http://www.w3.org/2000/svg"
   xmlns="http://www.w3.org/2000/svg"
   xmlns:sodipodi="http://sodipodi.sourceforge.net/DTD/sodipodi-0.dtd"
   xmlns:inkscape="http://www.inkscape.org/namespaces/inkscape"
   sodipodi:docname="scissors.svg"
   inkscape:version="1.0 (4035a4f, 2020-05-01)"
   id="svg1572"
   version="1.1"
   viewBox="0 0 16.568241 15.704468"
   height="15.704468mm"
   width="16.568241mm">
  <defs
     id="defs1566" />
  <sodipodi:namedview
     inkscape:window-maximized="0"
     inkscape:window-y="25"
     inkscape:window-x="0"
     inkscape:window-height="943"
     inkscape:window-width="1252"
     fit-margin-bottom="0"
     fit-margin-right="0"
     fit-margin-left="0"
     fit-margin-top="0"
     showgrid="false"
     inkscape:document-rotation="0"
     inkscape:current-layer="layer1"
     inkscape:document-units="mm"
     inkscape:cy="33.577918"
     inkscape:cx="24.336872"
     inkscape:zoom="3.7283233"
     inkscape:pageshadow="2"
     inkscape:pageopacity="0.0"
     borderopacity="1.0"
     bordercolor="#666666"
     pagecolor="#ffffff"
     id="base" />
  <metadata
     id="metadata1569">
    <rdf:RDF>
      <cc:Work
         rdf:about="">
        <dc:format>image/svg+xml</dc:format>
        <dc:type
           rdf:resource="http://purl.org/dc/dcmitype/StillImage" />
        <dc:title></dc:title>
      </cc:Work>
    </rdf:RDF>
  </metadata>
  <g
     transform="translate(-97.701891,-140.31444)"
     id="layer1"
     inkscape:groupmode="layer"
     inkscape:label="Lager 1">
    <path
       style="fill:none;stroke:#000000;stroke-width:0.661458;stroke-opacity:1"
       d="m 113.63405,147.8123 c -0.0291,0.0717 -0.0622,0.14156 -0.086,0.21432 -0.28549,0.86704 -1.1348,1.33112 -2.02301,1.10066 -0.66304,-0.17224 -1.31947,-0.37068 -1.98808,-0.51673 -0.81121,-0.1778 -1.60549,-0.0119 -2.38627,0.21326 -0.063,0.0185 -0.136,0.13176 -0.13997,0.20425 -0.0653,1.11919 0.15002,2.17488 0.74163,3.14167 0.20399,0.33311 0.39264,0.67521 0.59849,1.00753 0.56911,0.91837 0.12065,2.21906 -0.98716,2.46512 -0.0328,0.007 -0.0617,0.0302 -0.0926,0.0458 -0.12171,0 -0.24341,0 -0.36512,0 -0.50827,-0.15266 -0.96071,-0.38046 -1.2753,-0.83819 -0.55853,-0.81439 -0.36512,-1.82536 0.46594,-2.29235 0.14605,-0.0818 0.32305,-0.11907 0.49053,-0.15135 0.30851,-0.0585 0.41011,-0.19235 0.31539,-0.49265 -0.0701,-0.22251 -0.17251,-0.43524 -0.25771,-0.65352 -0.26564,-0.67839 -0.53922,-1.35387 -0.78925,-2.03835 -0.068,-0.1868 -0.15796,-0.25559 -0.3511,-0.26458 -1.55311,-0.0698 -3.10621,-0.14208 -4.65826,-0.22807 -0.44026,-0.0251 -0.886614,-0.0593 -1.314181,-0.15902 -0.682096,-0.15875 -1.194064,-0.63129 -1.375569,-1.21232 2.40004,0.0794 4.78473,0.15901 7.21678,0.23892 -0.67046,-2.32198 -1.32583,-4.5929 -1.9902,-6.89425 0.61172,0.0736 1.05516,0.36222 1.36604,0.82365 0.19606,0.29051 0.35904,0.61833 0.46567,0.95197 0.51885,1.6293 1.01679,3.26575 1.51315,4.9022 0.0587,0.19394 0.14235,0.26802 0.35375,0.29131 0.84508,0.0923 1.68672,0.21457 2.52968,0.32464 0.10319,0.0135 0.20743,0.0291 0.31089,0.0275 0.26961,-0.003 0.38338,-0.1278 0.35322,-0.39397 -0.14262,-1.26788 1.05462,-1.96109 2.12963,-1.56104 0.59954,0.22304 1.00647,0.63394 1.17237,1.26471 0.0106,0.0402 0.0373,0.0759 0.0566,0.11403 0,0.12171 0,0.24289 0,0.36486 z m -1.74969,0.65538 c 0.567,0 0.99298,-0.3892 0.99271,-0.9062 -2.6e-4,-0.4662 -0.48498,-0.90567 -0.99801,-0.90461 -0.51382,7.9e-4 -0.94191,0.42836 -0.94509,0.94271 -0.003,0.4908 0.41064,0.8681 0.95039,0.8681 z m -5.79835,5.49883 c -0.002,0.50298 0.44,0.96679 0.92472,0.97023 0.47731,0.004 0.84376,-0.3892 0.84217,-0.90302 -0.002,-0.5342 -0.4019,-0.98452 -0.8763,-0.98611 -0.47995,-0.002 -0.88874,0.42016 -0.89059,0.9189 z"
       id="path48" />
  </g>
</svg>
